<svg width="20" height="20" viewBox="0 0 20 20" fill="none" xmlns="http://www.w3.org/2000/svg">
<path d="M14.375 0H5.625C2.5 0 0 2.5 0 5.625V14.375C0 17.5 2.5 20 5.625 20H14.375C17.5 20 20 17.5 20 14.375V5.625C20 2.5 17.5 0 14.375 0ZM7.5 15.625C7.5 16 7.25 16.25 6.875 16.25H4.375C4 16.25 3.75 16 3.75 15.625V8.125C3.75 7.75 4 7.5 4.375 7.5H6.875C7.25 7.5 7.5 7.75 7.5 8.125V15.625ZM5.625 6.875C4.5625 6.875 3.75 6.0625 3.75 5C3.75 3.9375 4.5625 3.125 5.625 3.125C6.6875 3.125 7.5 3.9375 7.5 5C7.5 6.0625 6.6875 6.875 5.625 6.875ZM16.25 15.625C16.25 16 16 16.25 15.625 16.25H13.75C13.375 16.25 13.125 16 13.125 15.625V13.4375V12.8125V11.5625C13.125 11.0625 12.6875 10.625 12.1875 10.625C11.6875 10.625 11.25 11.0625 11.25 11.5625V12.8125V13.4375V15.625C11.25 16 11 16.25 10.625 16.25H8.75C8.375 16.25 8.125 16 8.125 15.625V8.125C8.125 7.75 8.375 7.5 8.75 7.5H11.25C11.4375 7.5 11.5625 7.5625 11.6875 7.6875C12.0625 7.5625 12.4375 7.5 12.8125 7.5C14.6875 7.5 16.25 9.0625 16.25 10.9375V15.625Z" fill="black"/>
</svg>
